<?xml version="1.0" encoding="UTF-8"?>
<svg width="11px" height="11px" viewBox="0 0 11 11" version="1.1" xmlns="http://www.w3.org/2000/svg" xmlns:xlink="http://www.w3.org/1999/xlink">
    <title>Group 9</title>
    <defs>
        <path d="M0.44,1.484 C0.44,2.0895 0.902478261,2.582 1.47065217,2.582 L1.47065217,2.582 C2.03882609,2.582 2.50082609,2.0895 2.50082609,1.484 L2.50082609,1.484 C2.50082609,0.8785 2.03882609,0.386 1.47065217,0.386 L1.47065217,0.386 C0.902478261,0.386 0.44,0.8785 0.44,1.484 L0.44,1.484 Z M1.02682609,1.484 C1.02682609,1.2235 1.22578261,1.0105 1.47065217,1.0105 L1.47065217,1.0105 C1.71552174,1.0105 1.91495652,1.2235 1.91495652,1.484 L1.91495652,1.484 C1.91495652,1.745 1.71552174,1.9575 1.47065217,1.9575 L1.47065217,1.9575 C1.22578261,1.9575 1.02682609,1.745 1.02682609,1.484 L1.02682609,1.484 Z" id="path-1"></path>
        <path d="M0.40173913,1.484 C0.40173913,2.0895 0.86373913,2.582 1.43191304,2.582 L1.43191304,2.582 C2.00056522,2.582 2.46256522,2.0895 2.46256522,1.484 L2.46256522,1.484 C2.46256522,0.8785 2.00056522,0.386 1.43191304,0.386 L1.43191304,0.386 C0.86373913,0.386 0.40173913,0.8785 0.40173913,1.484 L0.40173913,1.484 Z M0.988086957,1.484 C0.988086957,1.2235 1.18704348,1.0105 1.43191304,1.0105 L1.43191304,1.0105 C1.67726087,1.0105 1.87621739,1.2235 1.87621739,1.484 L1.87621739,1.484 C1.87621739,1.745 1.67726087,1.9575 1.43191304,1.9575 L1.43191304,1.9575 C1.18704348,1.9575 0.988086957,1.745 0.988086957,1.484 L0.988086957,1.484 Z" id="path-3"></path>
    </defs>
    <g id="Page-1" stroke="none" stroke-width="1" fill="none" fill-rule="evenodd">
        <g id="Home-Mobile" transform="translate(-353.000000, -42.000000)">
            <rect id="Rectangle" fill="#FFFFFF" x="0" y="0" width="375" height="2483"></rect>
            <rect id="Background-Copy" fill="#FFFFFF" x="0" y="0" width="375" height="2483"></rect>
            <rect id="Background-Copy" fill="#10504F" x="0" y="21" width="375" height="53"></rect>
            <g id="Group-9" transform="translate(353.000000, 42.000000)">
                <g id="Group-3" transform="translate(6.695652, 7.525150)">
                    <mask id="mask-2" fill="white">
                        <use xlink:href="#path-1"></use>
                    </mask>
                    <g id="Clip-2"></g>
                    <polygon id="Fill-1" fill="#FEFEFE" mask="url(#mask-2)" points="-1.8723913 5 4.81321739 5 4.81321739 -2.0315 -1.8723913 -2.0315"></polygon>
                </g>
                <g id="Group-6" transform="translate(2.869565, 7.525150)">
                    <mask id="mask-4" fill="white">
                        <use xlink:href="#path-3"></use>
                    </mask>
                    <g id="Clip-5"></g>
                    <polygon id="Fill-4" fill="#FEFEFE" mask="url(#mask-4)" points="-1.91113043 5 4.77495652 5 4.77495652 -2.0315 -1.91113043 -2.0315"></polygon>
                </g>
                <path d="M8.64604783,6.48975 L3.87874348,6.48975 L3.03461304,2.77075 L9.54135217,2.77075 L8.64604783,6.48975 Z M10.5021783,1.98075 C10.4137,1.85875 10.2802652,1.78925 10.1358304,1.78925 L2.81174348,1.78925 L2.49083043,0.37525 C2.44013478,0.15425 2.25600435,0.00025 2.04174348,0.00025 L0.461569565,0.00025 C0.206656522,0.00025 4.7826087e-05,0.22025 4.7826087e-05,0.49075 C4.7826087e-05,0.76125 0.206656522,0.98125 0.461569565,0.98125 L1.67874348,0.98125 L3.06665652,7.09625 C3.11687391,7.31725 3.30148261,7.47175 3.51526522,7.47175 L9.00426522,7.47175 C9.2147,7.47175 9.39835217,7.31975 9.45096087,7.10275 L10.5830043,2.40125 C10.6179174,2.25675 10.5882652,2.09975 10.5021783,1.98075 L10.5021783,1.98075 Z" id="Fill-7" fill="#FEFEFE"></path>
            </g>
        </g>
    </g>
</svg>